<svg id="Component_16_6" data-name="Component 16 – 6" xmlns="http://www.w3.org/2000/svg" xmlns:xlink="http://www.w3.org/1999/xlink" width="27" height="27" viewBox="0 0 27 27">
  <defs>
    <clipPath id="clip-path">
      <rect id="Rectangle_45" data-name="Rectangle 45" width="27" height="27" transform="translate(-0.105 -0.215)" fill="none"/>
    </clipPath>
  </defs>
  <g id="Group_7" data-name="Group 7" transform="translate(0.105 0.215)" clip-path="url(#clip-path)">
    <path id="Path_57" data-name="Path 57" d="M26.641,13.32A13.32,13.32,0,1,1,13.321,0a13.321,13.321,0,0,1,13.32,13.32" fill="#517fa4"/>
    <path id="Path_58" data-name="Path 58" d="M22.432,9H12.217A3.22,3.22,0,0,0,9,12.217V22.433a3.22,3.22,0,0,0,3.217,3.217H22.432a3.222,3.222,0,0,0,3.219-3.217V12.217A3.221,3.221,0,0,0,22.432,9m.924,1.92.367,0v2.822l-2.812.01-.01-2.822Zm-8.406,4.7a2.924,2.924,0,1,1-.555,1.708,2.928,2.928,0,0,1,.555-1.708m9.079,6.816a1.6,1.6,0,0,1-1.6,1.6H12.217a1.6,1.6,0,0,1-1.6-1.6V15.617h2.485a4.553,4.553,0,1,0,8.435,0h2.486Z" transform="translate(-4.005 -4.005)" fill="#fff"/>
    <path id="Path_59" data-name="Path 59" d="M26.641,13.32A13.32,13.32,0,1,1,13.321,0a13.321,13.321,0,0,1,13.32,13.32" fill="#517fa4"/>
    <path id="Path_60" data-name="Path 60" d="M22.432,9H12.217A3.22,3.22,0,0,0,9,12.217V22.433a3.22,3.22,0,0,0,3.217,3.217H22.432a3.222,3.222,0,0,0,3.219-3.217V12.217A3.221,3.221,0,0,0,22.432,9m.924,1.92.367,0v2.822l-2.812.01-.01-2.822Zm-8.406,4.7a2.924,2.924,0,1,1-.555,1.708,2.928,2.928,0,0,1,.555-1.708m9.079,6.816a1.6,1.6,0,0,1-1.6,1.6H12.217a1.6,1.6,0,0,1-1.6-1.6V15.617h2.485a4.553,4.553,0,1,0,8.435,0h2.486Z" transform="translate(-4.005 -4.005)" fill="#fff"/>
    <path id="Path_61" data-name="Path 61" d="M26.641,13.32A13.32,13.32,0,1,1,13.321,0a13.321,13.321,0,0,1,13.32,13.32" fill="#2ca6e0"/>
    <path id="Path_62" data-name="Path 62" d="M22.432,9H12.217A3.22,3.22,0,0,0,9,12.217V22.433a3.22,3.22,0,0,0,3.217,3.217H22.432a3.222,3.222,0,0,0,3.219-3.217V12.217A3.221,3.221,0,0,0,22.432,9m.924,1.92.367,0v2.822l-2.812.01-.01-2.822Zm-8.406,4.7a2.924,2.924,0,1,1-.555,1.708,2.928,2.928,0,0,1,.555-1.708m9.079,6.816a1.6,1.6,0,0,1-1.6,1.6H12.217a1.6,1.6,0,0,1-1.6-1.6V15.617h2.485a4.553,4.553,0,1,0,8.435,0h2.486Z" transform="translate(-4.005 -4.005)" fill="#fff"/>
  </g>
</svg>
