<svg id="Component_15_9" data-name="Component 15 – 9" xmlns="http://www.w3.org/2000/svg" xmlns:xlink="http://www.w3.org/1999/xlink" width="27" height="27" viewBox="0 0 27 27">
  <defs>
    <clipPath id="clip-path">
      <rect id="Rectangle_44" data-name="Rectangle 44" width="27" height="27" fill="none"/>
    </clipPath>
  </defs>
  <g id="Group_6" data-name="Group 6" clip-path="url(#clip-path)">
    <path id="Path_51" data-name="Path 51" d="M26.641,13.32A13.32,13.32,0,1,1,13.321,0a13.321,13.321,0,0,1,13.32,13.32" fill="#fe3432"/>
    <path id="Path_52" data-name="Path 52" d="M25.483,15.634a3.86,3.86,0,0,0-.661-1.723,2.326,2.326,0,0,0-1.667-.735C20.823,13,17.33,13,17.33,13h-.008s-3.5,0-5.825.175a2.328,2.328,0,0,0-1.668.735,3.852,3.852,0,0,0-.661,1.723A27.283,27.283,0,0,0,9,18.444V19.76a27.276,27.276,0,0,0,.167,2.811,3.851,3.851,0,0,0,.661,1.723,2.759,2.759,0,0,0,1.837.742c1.332.133,5.661.175,5.661.175s3.5-.007,5.83-.18a2.333,2.333,0,0,0,1.667-.736,3.858,3.858,0,0,0,.661-1.723,27.276,27.276,0,0,0,.167-2.811V18.444a27.283,27.283,0,0,0-.167-2.81m-9.876,5.724V16.479l4.5,2.448Z" transform="translate(-4.005 -5.785)" fill="#fff"/>
    <path id="Path_53" data-name="Path 53" d="M26.641,13.32A13.32,13.32,0,1,1,13.321,0a13.321,13.321,0,0,1,13.32,13.32" fill="#fe3432"/>
    <path id="Path_54" data-name="Path 54" d="M25.483,15.634a3.86,3.86,0,0,0-.661-1.723,2.326,2.326,0,0,0-1.667-.735C20.823,13,17.33,13,17.33,13h-.008s-3.5,0-5.825.175a2.328,2.328,0,0,0-1.668.735,3.852,3.852,0,0,0-.661,1.723A27.283,27.283,0,0,0,9,18.444V19.76a27.276,27.276,0,0,0,.167,2.811,3.851,3.851,0,0,0,.661,1.723,2.759,2.759,0,0,0,1.837.742c1.332.133,5.661.175,5.661.175s3.5-.007,5.83-.18a2.333,2.333,0,0,0,1.667-.736,3.858,3.858,0,0,0,.661-1.723,27.276,27.276,0,0,0,.167-2.811V18.444a27.283,27.283,0,0,0-.167-2.81m-9.876,5.724V16.479l4.5,2.448Z" transform="translate(-4.005 -5.785)" fill="#fff"/>
    <path id="Path_55" data-name="Path 55" d="M26.641,13.32A13.32,13.32,0,1,1,13.321,0a13.321,13.321,0,0,1,13.32,13.32" fill="#2ca6e0"/>
    <path id="Path_56" data-name="Path 56" d="M25.483,15.634a3.86,3.86,0,0,0-.661-1.723,2.326,2.326,0,0,0-1.667-.735C20.823,13,17.33,13,17.33,13h-.008s-3.5,0-5.825.175a2.328,2.328,0,0,0-1.668.735,3.852,3.852,0,0,0-.661,1.723A27.283,27.283,0,0,0,9,18.444V19.76a27.276,27.276,0,0,0,.167,2.811,3.851,3.851,0,0,0,.661,1.723,2.759,2.759,0,0,0,1.837.742c1.332.133,5.661.175,5.661.175s3.5-.007,5.83-.18a2.333,2.333,0,0,0,1.667-.736,3.858,3.858,0,0,0,.661-1.723,27.276,27.276,0,0,0,.167-2.811V18.444a27.283,27.283,0,0,0-.167-2.81m-9.876,5.724V16.479l4.5,2.448Z" transform="translate(-4.005 -5.785)" fill="#fff"/>
  </g>
</svg>
