<svg id="Component_17_6" data-name="Component 17 – 6" xmlns="http://www.w3.org/2000/svg" xmlns:xlink="http://www.w3.org/1999/xlink" width="27" height="27" viewBox="0 0 27 27">
  <defs>
    <clipPath id="clip-path">
      <rect id="Rectangle_46" data-name="Rectangle 46" width="27" height="27" transform="translate(-0.105 -0.215)" fill="none"/>
    </clipPath>
  </defs>
  <g id="Group_8" data-name="Group 8" transform="translate(0.105 0.215)" clip-path="url(#clip-path)">
    <path id="Path_63" data-name="Path 63" d="M26.642,13.32A13.321,13.321,0,1,1,13.323,0,13.321,13.321,0,0,1,26.642,13.32" fill="#3c5b9b"/>
    <path id="Path_64" data-name="Path 64" d="M18.666,25.65H22V17.325h2.471l.3-3.33H22.125V12.664a.705.705,0,0,1,.736-.8h1.868V9.011L22.157,9a3.248,3.248,0,0,0-3.5,3.49V14H17v3.33h1.665Z" transform="translate(-7.565 -4.005)" fill="#fff"/>
    <path id="Path_65" data-name="Path 65" d="M26.642,13.32A13.321,13.321,0,1,1,13.323,0,13.321,13.321,0,0,1,26.642,13.32" fill="#3c5b9b"/>
    <path id="Path_66" data-name="Path 66" d="M18.666,25.65H22V17.325h2.471l.3-3.33H22.125V12.664a.705.705,0,0,1,.736-.8h1.868V9.011L22.157,9a3.248,3.248,0,0,0-3.5,3.49V14H17v3.33h1.665Z" transform="translate(-7.565 -4.005)" fill="#fff"/>
    <path id="Path_67" data-name="Path 67" d="M26.642,13.32A13.321,13.321,0,1,1,13.323,0,13.321,13.321,0,0,1,26.642,13.32" fill="#2ca6e0"/>
    <path id="Path_68" data-name="Path 68" d="M18.666,25.65H22V17.325h2.471l.3-3.33H22.125V12.664a.705.705,0,0,1,.736-.8h1.868V9.011L22.157,9a3.248,3.248,0,0,0-3.5,3.49V14H17v3.33h1.665Z" transform="translate(-7.565 -4.005)" fill="#fff"/>
  </g>
</svg>
