<?xml version="1.0" encoding="utf-8"?>
<!-- Generator: Adobe Illustrator 24.0.1, SVG Export Plug-In . SVG Version: 6.00 Build 0)  -->
<svg version="1.1" id="Capa_1" xmlns="http://www.w3.org/2000/svg" xmlns:xlink="http://www.w3.org/1999/xlink" x="0px" y="0px"
	 viewBox="0 0 217.4 217.4" style="enable-background:new 0 0 217.4 217.4;" xml:space="preserve">
<style type="text/css">
	.st0{fill:#FFFFFF;}
</style>
<path class="st0" d="M194.1,22.7c-10.7-8.2-22.6-12.3-35.2-12.3c-16,0-33.2,6.8-50.1,19.8C91.8,17.1,74.5,10.3,58.6,10.3
	c-12.6,0-24.5,4.2-35.2,12.3C7.6,34.7-0.2,49.8,0,67.6c0.8,61.1,100.1,133.2,104.3,136.3l4.4,3.2l4.4-3.2
	c4.2-3,103.5-75.2,104.3-136.3C217.6,49.8,209.8,34.7,194.1,22.7z M153.8,149c-18.4,18.5-36.9,33.2-45.1,39.5
	c-8.2-6.3-26.8-21-45.1-39.5C32.1,117.4,15.3,89.1,15,67.4c-0.2-13,5.5-23.7,17.4-32.8c8.1-6.2,16.9-9.3,26.2-9.3
	c17.6,0,34.3,10.9,45.3,20.1l4.8,4l4.8-4c11-9.2,27.8-20.1,45.3-20.1c9.3,0,18.1,3.1,26.2,9.3c11.9,9.1,17.6,19.8,17.4,32.8
	C202.1,89.1,185.3,117.4,153.8,149z"/>
</svg>
