<?xml version="1.0" encoding="UTF-8"?>
<svg id="Layer_1" data-name="Layer 1" xmlns="http://www.w3.org/2000/svg" viewBox="0 0 429.84 145.85">
  <defs>
    <style>
      .cls-1 {
        fill: #fff;
      }

      .cls-2 {
        fill: #29abe2;
      }
    </style>
  </defs>
  <g>
    <path class="cls-2" d="M113.13,100.7h28.06v8.43h-18.01v10.31h15.39v8.43h-15.39v17.29h-10.05v-44.47Z"/>
    <path class="cls-1" d="M148.01,108.11h8.38v30.03h14.63v7.03h-23.01v-37.06Z"/>
    <path class="cls-1" d="M184.01,108.11h10.02l11.64,37.06h-8.87l-4.85-18.77c-1.03-3.71-2.02-8.09-3.01-11.95h-.23c-.9,3.91-1.89,8.25-2.92,11.95l-4.87,18.77h-8.57l11.64-37.06Zm-3.96,21.72h17.83v6.51h-17.83v-6.51Z"/>
    <path class="cls-1" d="M207.3,140.49l4.81-5.75c2.64,2.29,6.05,3.87,9.1,3.87,3.5,0,5.21-1.38,5.21-3.58,0-2.33-2.11-3.08-5.34-4.41l-4.82-2.05c-3.84-1.56-7.48-4.72-7.48-10.1,0-6.14,5.49-11.05,13.2-11.05,4.27,0,8.73,1.68,11.92,4.86l-4.23,5.28c-2.44-1.87-4.76-2.9-7.69-2.9s-4.73,1.2-4.73,3.32c0,2.27,2.42,3.1,5.66,4.39l4.72,1.91c4.53,1.83,7.35,4.84,7.35,10.08,0,6.15-5.13,11.49-13.96,11.49-4.82,0-9.95-1.83-13.73-5.36Z"/>
    <path class="cls-1" d="M241.31,108.11h8.38v14.28h12.79v-14.28h8.38v37.06h-8.38v-15.47h-12.79v15.47h-8.38v-37.06Z"/>
    <path class="cls-2" d="M280.5,100.7h15.22c9.23,0,16.4,2.54,16.4,11.03,0,3.99-2.23,8.24-5.86,9.6v.27c4.54,1.18,8.05,4.53,8.05,10.47,0,9.05-7.65,13.1-17.32,13.1h-16.49v-44.47Zm14.75,17.81c4.88,0,7.04-2.06,7.04-5.3,0-3.43-2.28-4.76-6.96-4.76h-4.77v10.05h4.7Zm.91,18.9c5.48,0,8.31-1.95,8.31-5.99s-2.78-5.49-8.31-5.49h-5.62v11.48h5.62Z"/>
    <path class="cls-1" d="M327.8,108.11h10.02l11.64,37.06h-8.87l-4.85-18.77c-1.03-3.71-2.02-8.09-3.01-11.95h-.23c-.9,3.91-1.89,8.25-2.92,11.95l-4.87,18.77h-8.57l11.64-37.06Zm-3.96,21.72h17.83v6.51h-17.83v-6.51Z"/>
    <path class="cls-1" d="M351.16,126.85c0-12.3,8.13-19.43,17.49-19.43,4.79,0,8.65,2.25,11.15,4.81l-4.42,5.37c-1.86-1.73-3.86-2.95-6.54-2.95-5.08,0-9.09,4.48-9.09,11.91s3.54,12.04,8.96,12.04c3.04,0,5.44-1.5,7.25-3.46l4.42,5.26c-3.08,3.58-7.17,5.44-11.97,5.44-9.4,0-17.25-6.52-17.25-19Z"/>
    <path class="cls-1" d="M386,108.11h8.38v15.14h.21l11.05-15.14h9.21l-11.21,14.79,13.27,22.27h-9.19l-9.01-15.66-4.33,5.72v9.93h-8.38v-37.06Z"/>
  </g>
  <polygon class="cls-2" points="101.99 145.17 101.99 0 54.41 72.58 101.99 145.17"/>
  <polygon class="cls-2" points="47.58 145.17 47.58 0 0 72.58 47.58 145.17"/>
  <path class="cls-1" d="M194.9,92.11h-27.86l-22.14-30.69h-7.45v30.64h-24.56V0h35.16C168.33,0,184.9,13.8,184.9,30.76c0,10.36-6.35,19.61-15.98,25.26l25.98,36.1m-34.52-61.38c.04-8.5-6.83-15.42-15.33-15.46,0,0,0,0-.01,0h-7.58v30.79h7.6c8.45-.04,15.29-6.88,15.32-15.33h0Z"/>
  <path class="cls-1" d="M260.4,56.01c.1,20.83-16.72,37.8-37.55,37.89-20.83,.1-37.8-16.72-37.89-37.55-.1-20.83,16.72-37.8,37.55-37.89,.03,0,.06,0,.09,0,20.78-.1,37.7,16.67,37.8,37.44,0,.03,0,.07,0,.1m-37.8-19.74c-6.51,0-12.01,8.84-12.01,19.74s5.5,19.72,12.01,19.72,12.15-8.82,12.15-19.72-5.5-19.74-12.15-19.74Z"/>
  <path class="cls-1" d="M318.04,19.99l-28.29,28.3V19.91h-24.57V92.04h24.57v-29.26l29.54,29.26h30.89l-37.53-37.55,31.1-31.08v42.83c0,14.22,8.53,27.32,30.05,27.32,10.23,0,19.58-5.8,24.13-11.03l11.05,9.52h5.23V19.99h-24.5v46.67c-2.77,4.83-6.63,7.87-12.58,7.87s-8.82-3.59-8.82-15.04V19.99h-50.28Z"/>
  <path class="cls-1" d="M424.99,28.56c-2.68,0-4.85-2.17-4.85-4.85,0-2.68,2.17-4.85,4.85-4.85,2.68,0,4.85,2.17,4.85,4.85s-2.17,4.85-4.85,4.85h0Zm0-9.23c-2.42,0-4.37,1.96-4.37,4.37,0,2.42,1.96,4.37,4.37,4.37,2.42,0,4.37-1.96,4.37-4.37,0-2.41-1.96-4.37-4.37-4.37Z"/>
  <path class="cls-1" d="M422.9,21.24h2.19c.52-.03,1.03,.15,1.42,.49,.27,.29,.42,.67,.41,1.06h0c.02,.72-.47,1.34-1.17,1.49l1.33,1.87h-1.02l-1.21-1.72h-1.08v1.72h-.86v-4.91Zm2.13,2.44c.64,0,1.01-.33,1.01-.82h0c0-.53-.38-.82-1.02-.82h-1.28v1.66h1.29Z"/>
</svg>